<svg id="visual" viewBox="0 0 900 600" width="900" height="600" xmlns="http://www.w3.org/2000/svg" xmlns:xlink="http://www.w3.org/1999/xlink" version="1.1"><rect x="0" y="0" width="900" height="600" fill="#140021"></rect><path d="M0 357L21.5 359.2C43 361.3 86 365.7 128.8 367.3C171.7 369 214.3 368 257.2 377.5C300 387 343 407 385.8 408.8C428.7 410.7 471.3 394.3 514.2 397.8C557 401.3 600 424.7 642.8 434.5C685.7 444.3 728.3 440.7 771.2 429.3C814 418 857 399 878.5 389.5L900 380L900 601L878.5 601C857 601 814 601 771.2 601C728.3 601 685.7 601 642.8 601C600 601 557 601 514.2 601C471.3 601 428.7 601 385.8 601C343 601 300 601 257.2 601C214.3 601 171.7 601 128.8 601C86 601 43 601 21.5 601L0 601Z" fill="#886f35"></path><path d="M0 472L21.5 460.8C43 449.7 86 427.3 128.8 419C171.7 410.7 214.3 416.3 257.2 418.5C300 420.7 343 419.3 385.8 417.7C428.7 416 471.3 414 514.2 418.8C557 423.7 600 435.3 642.8 443.7C685.7 452 728.3 457 771.2 456.3C814 455.7 857 449.3 878.5 446.2L900 443L900 601L878.5 601C857 601 814 601 771.2 601C728.3 601 685.7 601 642.8 601C600 601 557 601 514.2 601C471.3 601 428.7 601 385.8 601C343 601 300 601 257.2 601C214.3 601 171.7 601 128.8 601C86 601 43 601 21.5 601L0 601Z" fill="#a58632"></path><path d="M0 509L21.5 499.3C43 489.7 86 470.3 128.8 468.5C171.7 466.7 214.3 482.3 257.2 480.3C300 478.3 343 458.7 385.8 456.3C428.7 454 471.3 469 514.2 471.5C557 474 600 464 642.8 456.3C685.7 448.7 728.3 443.3 771.2 446.8C814 450.3 857 462.7 878.5 468.8L900 475L900 601L878.5 601C857 601 814 601 771.2 601C728.3 601 685.7 601 642.8 601C600 601 557 601 514.2 601C471.3 601 428.7 601 385.8 601C343 601 300 601 257.2 601C214.3 601 171.7 601 128.8 601C86 601 43 601 21.5 601L0 601Z" fill="#c39e2c"></path><path d="M0 512L21.5 510C43 508 86 504 128.8 509.2C171.7 514.3 214.3 528.7 257.2 529C300 529.3 343 515.7 385.8 510C428.7 504.3 471.3 506.7 514.2 508.3C557 510 600 511 642.8 509.5C685.7 508 728.3 504 771.2 508.2C814 512.3 857 524.7 878.5 530.8L900 537L900 601L878.5 601C857 601 814 601 771.2 601C728.3 601 685.7 601 642.8 601C600 601 557 601 514.2 601C471.3 601 428.7 601 385.8 601C343 601 300 601 257.2 601C214.3 601 171.7 601 128.8 601C86 601 43 601 21.5 601L0 601Z" fill="#e1b720"></path><path d="M0 558L21.5 553.2C43 548.3 86 538.7 128.8 537.8C171.7 537 214.3 545 257.2 545.8C300 546.7 343 540.3 385.8 541.8C428.7 543.3 471.3 552.7 514.2 553C557 553.3 600 544.7 642.8 539.8C685.7 535 728.3 534 771.2 539.8C814 545.7 857 558.3 878.5 564.7L900 571L900 601L878.5 601C857 601 814 601 771.2 601C728.3 601 685.7 601 642.8 601C600 601 557 601 514.2 601C471.3 601 428.7 601 385.8 601C343 601 300 601 257.2 601C214.3 601 171.7 601 128.8 601C86 601 43 601 21.5 601L0 601Z" fill="#ffd100"></path></svg>